<?xml version="1.0" standalone="no"?>
<!DOCTYPE svg PUBLIC "-//W3C//DTD SVG 20010904//EN"
 "http://www.w3.org/TR/2001/REC-SVG-20010904/DTD/svg10.dtd">
<svg version="1.0" xmlns="http://www.w3.org/2000/svg"
 width="512.000000pt" height="512.000000pt" viewBox="0 0 512.000000 512.000000"
 preserveAspectRatio="xMidYMid meet">
<metadata>
Created by potrace 1.11, written by Peter Selinger 2001-2013
</metadata>
<g transform="translate(0.000000,512.000000) scale(0.100000,-0.100000)"
fill="#000000" stroke="none">
<path d="M2705 5083 c-40 -10 -104 -68 -126 -115 -27 -59 -28 -120 -1 -181 86
-195 383 -153 408 59 19 158 -120 276 -281 237z"/>
<path d="M2159 4580 c-42 -12 -76 -39 -93 -75 -32 -68 -15 -139 45 -181 76
-52 180 -22 216 64 43 104 -60 222 -168 192z"/>
<path d="M2702 4421 c-71 -45 -93 -136 -49 -202 62 -93 197 -87 246 10 32 64
12 148 -44 185 -42 28 -114 31 -153 7z"/>
<path d="M1837 4065 c-117 -40 -179 -180 -128 -290 38 -84 103 -125 205 -129
l61 -3 -1 -574 0 -574 -36 -65 c-19 -36 -95 -182 -168 -325 -73 -143 -170
-333 -216 -422 -46 -90 -122 -236 -168 -325 -46 -90 -136 -266 -201 -393 -65
-126 -139 -271 -165 -321 -53 -102 -64 -136 -61 -210 5 -160 92 -301 233 -379
l53 -30 1310 0 1310 0 57 29 c150 76 241 233 234 404 -4 84 -2 81 -106 255
-36 59 -78 131 -95 161 -16 29 -35 60 -41 67 -6 8 -23 34 -36 59 -14 25 -67
115 -118 200 -51 85 -100 169 -110 185 -10 17 -72 122 -139 234 -66 112 -121
206 -121 209 0 3 -11 20 -25 38 -14 18 -25 35 -25 37 0 3 -75 131 -166 284
-91 153 -170 286 -176 296 -11 21 -16 1142 -5 1153 3 4 33 8 64 10 101 5 163
41 201 116 43 87 27 181 -43 251 -28 28 -58 48 -84 55 -65 16 -1246 14 -1294
-3z m1277 -154 c31 -29 29 -76 -4 -103 -19 -15 -42 -18 -141 -18 l-119 0 0
-642 0 -641 143 -246 c78 -135 147 -253 152 -263 6 -9 17 -29 26 -45 8 -15 73
-127 144 -248 218 -374 226 -389 250 -431 46 -81 50 -89 56 -94 3 -3 8 -9 10
-15 4 -9 64 -115 111 -195 86 -146 238 -411 252 -437 26 -51 21 -144 -10 -207
-31 -63 -65 -100 -124 -134 l-45 -27 -1252 3 c-1392 3 -1286 -3 -1368 73 -56
52 -88 126 -88 204 0 66 -2 62 238 530 51 99 168 329 260 510 92 182 205 402
250 490 45 88 124 242 174 341 l92 181 2 644 2 644 -127 5 c-141 6 -159 13
-160 69 -1 43 25 69 76 73 22 2 296 3 608 3 l567 -1 25 -23z"/>
<path d="M2160 2020 c-42 -12 -108 -48 -145 -81 -20 -18 -55 -71 -83 -127
-253 -500 -493 -973 -579 -1142 -93 -180 -104 -209 -100 -242 6 -48 29 -83 69
-108 30 -18 75 -19 1233 -18 1157 0 1204 0 1233 18 17 11 39 34 48 52 37 72
39 69 -208 501 -127 221 -244 427 -261 457 -16 30 -41 72 -54 92 -12 21 -23
39 -23 42 0 2 -30 55 -66 117 -37 63 -77 132 -89 154 -50 92 -87 155 -92 155
-3 0 -22 -15 -44 -33 -99 -85 -216 -112 -328 -76 -48 16 -124 67 -191 128 -75
69 -159 110 -235 115 -33 1 -71 0 -85 -4z"/>
</g>
</svg>
